<?xml version="1.0" encoding="UTF-8" standalone="no"?>
<!-- Generator: Adobe Illustrator 26.0.3, SVG Export Plug-In . SVG Version: 6.00 Build 0)  -->

<svg
   version="1.1"
   id="Слой_1"
   x="0px"
   y="0px"
   viewBox="0 0 500 500"
   style="enable-background:new 0 0 500 500;"
   xml:space="preserve"
   sodipodi:docname="0.svg"
   inkscape:version="1.1.2 (0a00cf5339, 2022-02-04)"
   xmlns:inkscape="http://www.inkscape.org/namespaces/inkscape"
   xmlns:sodipodi="http://sodipodi.sourceforge.net/DTD/sodipodi-0.dtd"
   xmlns="http://www.w3.org/2000/svg"
   xmlns:svg="http://www.w3.org/2000/svg"><defs
   id="defs141" /><sodipodi:namedview
   id="namedview139"
   pagecolor="#ffffff"
   bordercolor="#666666"
   borderopacity="1.0"
   inkscape:pageshadow="2"
   inkscape:pageopacity="0.0"
   inkscape:pagecheckerboard="0"
   showgrid="false"
   inkscape:zoom="1.268"
   inkscape:cx="-31.15142"
   inkscape:cy="250"
   inkscape:window-width="1600"
   inkscape:window-height="838"
   inkscape:window-x="0"
   inkscape:window-y="34"
   inkscape:window-maximized="1"
   inkscape:current-layer="Слой_1" />
<g
   id="g136"
   style="fill:#8187aa;fill-opacity:1">
	<g
   id="g134"
   style="fill:#8187aa;fill-opacity:1">
		<g
   id="g132"
   style="fill:#8187aa;fill-opacity:1">
			<g
   id="C392_x2C__Buildings_x2C__house_x2C__retail_x2C__shop_front_x2C__shops"
   style="fill:#8187aa;fill-opacity:1">
				<g
   id="g128"
   style="fill:#8187aa;fill-opacity:1">
					<rect
   x="321.86"
   y="114.97"
   width="30.75"
   height="30.4"
   id="rect92"
   style="fill:#8187aa;fill-opacity:1" />
					<rect
   x="321.86"
   y="414.97"
   width="80.93"
   height="70.4"
   id="rect94"
   style="fill:#8187aa;fill-opacity:1" />
					<path
   d="M342.09,330.17v-35.2h-50.98v35.2c0,13.6,11.33,24.8,25.09,24.8C329.95,354.97,342.09,343.78,342.09,330.17z"
   id="path96"
   style="fill:#8187aa;fill-opacity:1" />
					<path
   d="M347.76,347.78c-5.66,8.8-14.57,15.2-25.09,16.8v40h80.93v-50.4c-6.48,6.4-15.37,10.4-25.09,10.4       C364.75,364.58,353.42,358.17,347.76,347.78z"
   id="path98"
   style="fill:#8187aa;fill-opacity:1" />
					<path
   d="M352.61,330.17c0,13.6,11.33,24.8,25.09,24.8c13.76,0,25.09-11.2,25.09-24.8v-35.2H351.8v35.2H352.61z"
   id="path100"
   style="fill:#8187aa;fill-opacity:1" />
					<rect
   x="321.86"
   y="214.97"
   width="30.75"
   height="30.4"
   id="rect102"
   style="fill:#8187aa;fill-opacity:1" />
					<path
   d="M256.3,354.97c13.76,0,25.09-11.2,25.09-24.8v-35.2h-50.98v35.2C231.22,343.78,242.55,354.97,256.3,354.97z"
   id="path104"
   style="fill:#8187aa;fill-opacity:1" />
					<path
   d="M165.67,347.78c-6.48,10.4-17.8,16.8-30.76,16.8c-9.71,0-18.61-4-25.09-10.4v50.4h80.93v-40       C179.43,362.97,170.52,356.58,165.67,347.78z"
   id="path106"
   style="fill:#8187aa;fill-opacity:1" />
					<rect
   x="109.83"
   y="414.97"
   width="80.93"
   height="70.4"
   id="rect108"
   style="fill:#8187aa;fill-opacity:1" />
					<path
   d="M220.7,330.17v-35.2h-50.98v35.2c0,13.6,11.33,24.8,25.09,24.8C208.56,354.97,220.7,343.78,220.7,330.17z"
   id="path110"
   style="fill:#8187aa;fill-opacity:1" />
					<path
   d="M160.01,330.17v-35.2h-50.98v35.2c0,13.6,11.33,24.8,25.09,24.8C147.87,354.97,160.01,343.78,160.01,330.17z"
   id="path112"
   style="fill:#8187aa;fill-opacity:1" />
					<path
   d="M287.06,347.78c-6.48,10.4-17.8,16.8-30.76,16.8c-12.95,0-24.27-7.2-30.75-16.8c-5.66,8.8-14.56,15.2-25.09,16.8v45.6       l0,0l0,0v75.2h111.68v-120C300.82,362.97,291.91,356.58,287.06,347.78z"
   id="path114"
   style="fill:#8187aa;fill-opacity:1" />
					<polygon
   points="69.37,34.97 69.37,64.58 104.98,64.58 408.45,64.58 443.25,64.58 443.25,34.97      "
   id="polygon116"
   style="fill:#8187aa;fill-opacity:1" />
					<rect
   x="160.01"
   y="214.97"
   width="30.75"
   height="30.4"
   id="rect118"
   style="fill:#8187aa;fill-opacity:1" />
					<rect
   x="160.01"
   y="114.97"
   width="30.75"
   height="30.4"
   id="rect120"
   style="fill:#8187aa;fill-opacity:1" />
					<path
   d="M109.83,284.58h55.84h60.7h60.7h60.7h55.84V74.97H109.83V284.58z M312.15,110.17c0-2.4,2.43-4.8,4.85-4.8h40.47       c2.42,0,4.85,2.4,4.85,4.8v40c0,2.4-2.43,4.8-4.85,4.8H317c-2.42,0-4.85-2.4-4.85-4.8V110.17z M312.15,210.17       c0-2.4,2.43-4.8,4.85-4.8h40.47c2.42,0,4.85,2.4,4.85,4.8v40c0,2.4-2.43,4.8-4.85,4.8H317c-2.42,0-4.85-2.4-4.85-4.8V210.17z        M231.22,110.17c0-2.4,2.43-4.8,4.86-4.8h40.46c2.43,0,4.86,2.4,4.86,4.8v40c0,2.4-2.43,4.8-4.86,4.8h-40.46       c-2.43,0-4.86-2.4-4.86-4.8V110.17z M231.22,210.17c0-2.4,2.43-4.8,4.86-4.8h40.46c2.43,0,4.86,2.4,4.86,4.8v40       c0,2.4-2.43,4.8-4.86,4.8h-40.46c-2.43,0-4.86-2.4-4.86-4.8V210.17z M150.3,110.17c0-2.4,2.42-4.8,4.85-4.8h40.46       c2.43,0,4.86,2.4,4.86,4.8v40c0,2.4-2.43,4.8-4.86,4.8h-40.46c-2.43,0-4.85-2.4-4.85-4.8V110.17z M150.3,210.17       c0-2.4,2.42-4.8,4.85-4.8h40.46c2.43,0,4.86,2.4,4.86,4.8v40c0,2.4-2.43,4.8-4.86,4.8h-40.46c-2.43,0-4.85-2.4-4.85-4.8V210.17       z"
   id="path122"
   style="fill:#8187aa;fill-opacity:1" />
					<rect
   x="240.93"
   y="214.97"
   width="30.76"
   height="30.4"
   id="rect124"
   style="fill:#8187aa;fill-opacity:1" />
					<rect
   x="240.93"
   y="114.97"
   width="30.76"
   height="30.4"
   id="rect126"
   style="fill:#8187aa;fill-opacity:1" />
				</g>
			</g>
			<g
   id="Layer_1_13_"
   style="fill:#8187aa;fill-opacity:1">
			</g>
		</g>
	</g>
</g>
</svg>
