<?xml version="1.0" encoding="UTF-8" standalone="no"?>
<!-- Generator: Adobe Illustrator 26.0.3, SVG Export Plug-In . SVG Version: 6.00 Build 0)  -->

<svg
   version="1.1"
   id="Слой_1"
   x="0px"
   y="0px"
   viewBox="0 0 500 500"
   style="enable-background:new 0 0 500 500;"
   xml:space="preserve"
   sodipodi:docname="30.svg"
   inkscape:version="1.1.2 (0a00cf5339, 2022-02-04)"
   xmlns:inkscape="http://www.inkscape.org/namespaces/inkscape"
   xmlns:sodipodi="http://sodipodi.sourceforge.net/DTD/sodipodi-0.dtd"
   xmlns="http://www.w3.org/2000/svg"
   xmlns:svg="http://www.w3.org/2000/svg"><defs
   id="defs1478" /><sodipodi:namedview
   id="namedview1476"
   pagecolor="#ffffff"
   bordercolor="#666666"
   borderopacity="1.0"
   inkscape:pageshadow="2"
   inkscape:pageopacity="0.0"
   inkscape:pagecheckerboard="0"
   showgrid="false"
   inkscape:zoom="1.26"
   inkscape:cx="84.52381"
   inkscape:cy="250"
   inkscape:window-width="1600"
   inkscape:window-height="838"
   inkscape:window-x="0"
   inkscape:window-y="34"
   inkscape:window-maximized="1"
   inkscape:current-layer="g1473" />
<g
   id="g1473">
	<g
   id="g1471"
   style="fill:#8187aa;fill-opacity:1">
		<g
   id="g1469"
   style="fill:#8187aa;fill-opacity:1">
			<g
   id="C391_x2C__Buildings_x2C__house_x2C__retail_x2C__shop_front_x2C__shops"
   style="fill:#8187aa;fill-opacity:1">
				<g
   id="g1465"
   style="fill:#8187aa;fill-opacity:1">
					<path
   d="M254.31,347.83c13.76,0,25.09-11.2,25.09-24.8v-35.2h-50.98v35.2C229.22,336.64,240.55,347.83,254.31,347.83z"
   id="path1435"
   style="fill:#8187aa;fill-opacity:1" />
					<path
   d="M340.09,323.03v-35.2h-50.98v35.2c0,13.6,11.33,24.8,25.09,24.8C327.95,347.83,340.09,336.64,340.09,323.03z"
   id="path1437"
   style="fill:#8187aa;fill-opacity:1" />
					<rect
   x="158.01"
   y="207.83"
   width="30.75"
   height="30.4"
   id="rect1439"
   style="fill:#8187aa;fill-opacity:1" />
					<path
   d="M400.79,347.03c-6.47,6.4-15.38,10.4-25.09,10.4c-12.95,0-24.28-7.2-30.75-16.8c-5.66,8.8-14.57,15.2-25.09,16.8v40       h80.92V347.03z"
   id="path1441"
   style="fill:#8187aa;fill-opacity:1" />
					<path
   d="M400.79,287.83H349.8v35.2c0,13.6,11.34,24.8,25.09,24.8c13.76,0,25.09-11.2,25.09-24.8v-35.2H400.79z"
   id="path1443"
   style="fill:#8187aa;fill-opacity:1" />
					<rect
   x="158.01"
   y="107.83"
   width="30.75"
   height="30.4"
   id="rect1445"
   style="fill:#8187aa;fill-opacity:1" />
					<path
   d="M132.92,347.83c13.76,0,25.09-11.2,25.09-24.8v-35.2h-50.98v35.2C107.83,336.64,119.16,347.83,132.92,347.83z"
   id="path1447"
   style="fill:#8187aa;fill-opacity:1" />
					<path
   d="M193.61,347.83c13.76,0,25.09-11.2,25.09-24.8v-35.2h-50.98v35.2C168.53,336.64,179.86,347.83,193.61,347.83z"
   id="path1449"
   style="fill:#8187aa;fill-opacity:1" />
					<path
   d="M188.76,357.44c-10.52-1.6-20.23-8-25.09-16.8c-6.48,10.4-17.8,16.8-30.75,16.8c-9.71,0-18.61-4-25.09-10.4v50.4h80.93       V357.44z"
   id="path1451"
   style="fill:#8187aa;fill-opacity:1" />
					<rect
   x="238.94"
   y="107.83"
   width="30.75"
   height="30.4"
   id="rect1453"
   style="fill:#8187aa;fill-opacity:1" />
					<path
   d="M224.37,277.44h60.7h60.69h55.84v-192l-146.48-58.4l-146.48,58.4v192h55.84H224.37z M310.15,103.03       c0-2.4,2.42-4.8,4.85-4.8h40.46c2.43,0,4.86,2.4,4.86,4.8v40c0,2.4-2.43,4.8-4.86,4.8h-40.46c-2.43,0-4.85-2.4-4.85-4.8V103.03       z M310.15,203.03c0-2.4,2.42-4.8,4.85-4.8h40.46c2.43,0,4.86,2.4,4.86,4.8v40c0,2.4-2.43,4.8-4.86,4.8h-40.46       c-2.43,0-4.85-2.4-4.85-4.8V203.03z M229.22,103.03c0-2.4,2.43-4.8,4.86-4.8h40.46c2.43,0,4.85,2.4,4.85,4.8v40       c0,2.4-2.43,4.8-4.85,4.8h-40.46c-2.43,0-4.86-2.4-4.86-4.8V103.03z M229.22,203.03c0-2.4,2.43-4.8,4.86-4.8h40.46       c2.43,0,4.85,2.4,4.85,4.8v40c0,2.4-2.43,4.8-4.85,4.8h-40.46c-2.43,0-4.86-2.4-4.86-4.8V203.03z M148.29,103.03       c0-2.4,2.43-4.8,4.86-4.8h40.46c2.43,0,4.86,2.4,4.86,4.8v40c0,2.4-2.43,4.8-4.86,4.8h-40.46c-2.43,0-4.86-2.4-4.86-4.8V103.03       z M148.29,243.03v-40c0-2.4,2.43-4.8,4.86-4.8h40.46c2.43,0,4.86,2.4,4.86,4.8v40c0,2.4-2.43,4.8-4.86,4.8h-40.46       C150.72,247.83,148.29,245.44,148.29,243.03z"
   id="path1455"
   style="fill:#8187aa;fill-opacity:1" />
					<rect
   x="238.94"
   y="207.83"
   width="30.75"
   height="30.4"
   id="rect1457"
   style="fill:#8187aa;fill-opacity:1" />
					<rect
   x="319.87"
   y="207.83"
   width="30.75"
   height="30.4"
   id="rect1459"
   style="fill:#8187aa;fill-opacity:1" />
					<rect
   x="319.87"
   y="107.83"
   width="30.75"
   height="30.4"
   id="rect1461"
   style="fill:#8187aa;fill-opacity:1" />
					<path
   d="M492.24,388.64c0-7.2-2.43-14.4-7.29-20c4.86-5.6,7.29-12.8,7.29-20c0-16.8-13.76-30.4-30.76-30.4       c-16.99,0-30.75,13.6-30.75,30.4c0,7.2,2.43,14.4,7.28,20c-4.85,5.6-7.28,12.8-7.28,20c0,15.2,11.33,28,25.9,30.4v59.2H401.6       v-70.4h-80.93v70.4h-10.52v-120c-10.52-1.6-20.23-8-25.09-16.8c-6.48,10.4-17.8,16.8-30.75,16.8c-12.95,0-24.28-7.2-30.75-16.8       c-5.67,8.8-14.57,15.2-25.09,16.8v45.6l0,0l0,0v75.2h-10.52v-70.4h-80.93v70.4H51.99v-59.2c14.57-2.4,25.89-15.2,25.89-30.4       c0-7.2-2.43-14.4-7.28-20c4.86-5.6,7.28-12.8,7.28-20c0-16.8-13.76-30.4-30.75-30.4c-17,0-30.75,13.6-30.75,30.4       c0,7.2,2.43,14.4,7.29,20c-4.86,5.6-7.29,12.8-7.29,20c0,15.2,11.33,28,25.9,30.4v59.2H21.24c-2.43,0-4.86,2.4-4.86,4.8       c0,2.4,2.43,4.8,4.86,4.8h465.33c2.43,0,4.86-2.4,4.86-4.8c0-2.4-2.43-4.8-4.86-4.8h-21.04v-59.2       C480.9,416.64,492.24,403.83,492.24,388.64z"
   id="path1463"
   style="fill:#8187aa;fill-opacity:1" />
				</g>
			</g>
			<g
   id="Layer_1_3_"
   style="fill:#8187aa;fill-opacity:1">
			</g>
		</g>
	</g>
</g>
</svg>
