<?xml version="1.0" encoding="UTF-8" standalone="no"?>
<!-- Generator: Adobe Illustrator 26.0.3, SVG Export Plug-In . SVG Version: 6.00 Build 0)  -->

<svg
   version="1.1"
   id="Слой_1"
   x="0px"
   y="0px"
   viewBox="0 0 500 500"
   style="enable-background:new 0 0 500 500;"
   xml:space="preserve"
   sodipodi:docname="45h.svg"
   inkscape:version="1.1.2 (0a00cf5339, 2022-02-04)"
   xmlns:inkscape="http://www.inkscape.org/namespaces/inkscape"
   xmlns:sodipodi="http://sodipodi.sourceforge.net/DTD/sodipodi-0.dtd"
   xmlns="http://www.w3.org/2000/svg"
   xmlns:svg="http://www.w3.org/2000/svg"><defs
   id="defs1501" /><sodipodi:namedview
   id="namedview1499"
   pagecolor="#ffffff"
   bordercolor="#666666"
   borderopacity="1.0"
   inkscape:pageshadow="2"
   inkscape:pageopacity="0.0"
   inkscape:pagecheckerboard="0"
   showgrid="false"
   inkscape:zoom="1.26"
   inkscape:cx="84.52381"
   inkscape:cy="250"
   inkscape:window-width="1600"
   inkscape:window-height="838"
   inkscape:window-x="0"
   inkscape:window-y="34"
   inkscape:window-maximized="1"
   inkscape:current-layer="g1492" />
<g
   id="g1496"
   style="fill:#000080">
	<g
   id="g1494"
   style="fill:#000080">
		<g
   id="g1492"
   style="fill:#000080">
			<g
   id="C398_x2C__Buildings_x2C__house_x2C__shop_front_x2C__shops_x2C__store"
   style="fill:#6ec248;fill-opacity:1">
				<g
   id="g1488"
   style="fill:#6ec248;fill-opacity:1">
					<rect
   x="214.53"
   y="151.05"
   width="63.13"
   height="50.4"
   id="rect1480"
   style="fill:#6ec248;fill-opacity:1" />
					<rect
   x="214.53"
   y="261.45"
   width="63.13"
   height="50.4"
   id="rect1482"
   style="fill:#6ec248;fill-opacity:1" />
					<rect
   x="214.53"
   y="381.45"
   width="63.13"
   height="90.4"
   id="rect1484"
   style="fill:#6ec248;fill-opacity:1" />
					<path
   d="M406.33,153.45l-46.94-36.8l-113.3-93.6l-116.53,96l-46.94,36.8c-2.43,1.6-2.43,4.8-0.81,7.2       c0.81,1.6,2.43,1.6,4.05,1.6c0.81,0,2.43,0,3.23-0.8l40.47-32v339.2h75.26v-94.4c0-2.4,2.43-4.8,4.86-4.8h72.84       c2.42,0,4.85,2.4,4.85,4.8v95.2h75.27v-340.8l38.03,29.6c0.81,0.8,2.43,0.8,3.23,0.8c1.63,0,3.24-0.8,4.05-1.6       C408.76,158.25,408.76,155.05,406.33,153.45z M287.37,316.65c0,2.4-2.43,4.8-4.85,4.8h-72.84c-2.43,0-4.86-2.4-4.86-4.8v-60       c0-2.4,2.43-4.8,4.86-4.8h72.84c2.42,0,4.85,2.4,4.85,4.8V316.65z M287.37,206.25c0,2.4-2.43,4.8-4.85,4.8h-72.84       c-2.43,0-4.86-2.4-4.86-4.8v-60c0-2.4,2.43-4.8,4.86-4.8h72.84c2.42,0,4.85,2.4,4.85,4.8V206.25z"
   id="path1486"
   style="fill:#6ec248;fill-opacity:1" />
				</g>
			</g>
			<g
   id="Layer_1_16_"
   style="fill:#000080">
			</g>
		</g>
	</g>
</g>
</svg>
